<svg class="vector" width="300px" height="300px" xmlns="http://www.w3.org/2000/svg" baseProfile="full" version="1.1" style="width: 900px; height: 900px; stroke: rgb(200, 200, 200); stroke-width: 1; fill: none; stroke-linecap: butt;"><path d="M6,294 A-144,-144 0 0,1 150,150"></path><path d="M150,150 A-144,-144 0 0,0 294,6"></path><path d="M6,294 A-156,-156 0 0,1 162,138"></path><path d="M6,294 A-168,-168 0 0,1 174,126"></path><path d="M6,294 A-180,-180 0 0,1 186,114"></path><path d="M6,294 A-192,-192 0 0,1 198,102"></path><path d="M6,294 A-204,-204 0 0,1 210,90"></path><path d="M6,294 A-216,-216 0 0,1 222,78"></path><path d="M6,294 A-228,-228 0 0,1 234,66"></path><path d="M6,294 A-240,-240 0 0,1 246,54"></path><path d="M6,294 A-252,-252 0 0,1 258,42"></path><path d="M6,294 A-264,-264 0 0,1 270,30"></path><path d="M6,294 A-276,-276 0 0,1 282,18"></path><path d="M6,294 A-288,-288 0 0,1 294,6"></path><path d="M294,6 A156,156 0 0,1 138,162"></path><path d="M294,6 A168,168 0 0,1 126,174"></path><path d="M294,6 A180,180 0 0,1 114,186"></path><path d="M294,6 A192,192 0 0,1 102,198"></path><path d="M294,6 A204,204 0 0,1 90,210"></path><path d="M294,6 A216,216 0 0,1 78,222"></path><path d="M294,6 A228,228 0 0,1 66,234"></path><path d="M294,6 A240,240 0 0,1 54,246"></path><path d="M294,6 A252,252 0 0,1 42,258"></path><path d="M294,6 A264,264 0 0,1 30,270"></path><path d="M294,6 A276,276 0 0,1 18,282"></path><path d="M294,6 A288,288 0 0,1 6,294"></path><path d="M294,6 A132,132 0 0,1 162,138"></path><path d="M294,6 A120,120 0 0,1 174,126"></path><path d="M294,6 A108,108 0 0,1 186,114"></path><path d="M294,6 A96,96 0 0,1 198,102"></path><path d="M294,6 A84,84 0 0,1 210,90"></path><path d="M294,6 A72,72 0 0,1 222,78"></path><path d="M294,6 A60,60 0 0,1 234,66"></path><path d="M294,6 A48,48 0 0,1 246,54"></path><path d="M294,6 A36,36 0 0,1 258,42"></path><path d="M294,6 A24,24 0 0,1 270,30"></path><path d="M294,6 A12,12 0 0,1 282,18"></path><path d="M6,294 A-12,-12 0 0,1 18,282"></path><path d="M6,294 A-24,-24 0 0,1 30,270"></path><path d="M6,294 A-36,-36 0 0,1 42,258"></path><path d="M6,294 A-48,-48 0 0,1 54,246"></path><path d="M6,294 A-60,-60 0 0,1 66,234"></path><path d="M6,294 A-72,-72 0 0,1 78,222"></path><path d="M6,294 A-84,-84 0 0,1 90,210"></path><path d="M6,294 A-96,-96 0 0,1 102,198"></path><path d="M6,294 A-108,-108 0 0,1 114,186"></path><path d="M6,294 A-120,-120 0 0,1 126,174"></path><path d="M6,294 A-132,-132 0 0,1 138,162"></path><path d="M6,294 A-276,-288 0 0,1 282,6"></path><path d="M6,294 A-264,-288 0 0,1 270,6"></path><path d="M6,294 A-252,-288 0 0,1 258,6"></path><path d="M6,294 A-240,-288 0 0,1 246,6"></path><path d="M6,294 A-228,-288 0 0,1 234,6"></path><path d="M6,294 A-216,-288 0 0,1 222,6"></path><path d="M6,294 A-204,-288 0 0,1 210,6"></path><path d="M6,294 A-192,-288 0 0,1 198,6"></path><path d="M6,294 A-180,-288 0 0,1 186,6"></path><path d="M6,294 A-168,-288 0 0,1 174,6"></path><path d="M6,294 A-156,-288 0 0,1 162,6"></path><path d="M6,294 A-144,-288 0 0,1 150,6"></path><path d="M6,294 A-132,-288 0 0,1 138,6"></path><path d="M6,294 A-120,-288 0 0,1 126,6"></path><path d="M6,294 A-108,-288 0 0,1 114,6"></path><path d="M6,294 A-96,-288 0 0,1 102,6"></path><path d="M6,294 A-84,-288 0 0,1 90,6"></path><path d="M6,294 A-72,-288 0 0,1 78,6"></path><path d="M6,294 A-60,-288 0 0,1 66,6"></path><path d="M6,294 A-36,-288 0 0,1 42,6"></path><path d="M6,294 A-48,-288 0 0,1 54,6"></path><path d="M6,282 A-24,-276 0 0,1 30,6"></path><path d="M6,294 A-12,-288 0 0,1 18,6"></path><path d="M6,294 A0,-288 0 0,1 6,6"></path><path d="M294,6 A276,288 0 0,1 18,294"></path><path d="M294,6 A264,288 0 0,1 30,294"></path><path d="M294,6 A252,288 0 0,1 42,294"></path><path d="M294,6 A240,288 0 0,1 54,294"></path><path d="M294,6 A228,288 0 0,1 66,294"></path><path d="M294,6 A216,288 0 0,1 78,294"></path><path d="M294,6 A204,288 0 0,1 90,294"></path><path d="M294,6 A192,288 0 0,1 102,294"></path><path d="M294,6 A180,288 0 0,1 114,294"></path><path d="M294,6 A168,288 0 0,1 126,294"></path><path d="M294,6 A156,288 0 0,1 138,294"></path><path d="M294,6 A144,288 0 0,1 150,294"></path><path d="M294,6 A132,288 0 0,1 162,294"></path><path d="M294,6 A120,288 0 0,1 174,294"></path><path d="M294,6 A108,288 0 0,1 186,294"></path><path d="M294,6 A96,288 0 0,1 198,294"></path><path d="M294,6 A84,288 0 0,1 210,294"></path><path d="M294,6 A72,288 0 0,1 222,294"></path><path d="M294,6 A60,288 0 0,1 234,294"></path><path d="M294,6 A48,288 0 0,1 246,294"></path><path d="M294,6 A36,288 0 0,1 258,294"></path><path d="M294,6 A24,288 0 0,1 270,294"></path><path d="M294,6 A12,288 0 0,1 282,294"></path><path d="M294,6 A0,288 0 0,1 294,294"></path><line x1="294" y1="294" x2="6" y2="294"></line><line x1="6" y1="6" x2="294" y2="6"></line></svg>
